<svg xmlns="http://www.w3.org/2000/svg" viewBox="0 0 128 128">
  <defs>
    <linearGradient id="bgGradient" x1="0%" y1="0%" x2="100%" y2="100%">
      <stop offset="0%" style="stop-color:#7C4DFF;stop-opacity:1" />
      <stop offset="100%" style="stop-color:#448AFF;stop-opacity:1" />
    </linearGradient>
    <linearGradient id="cGradient" x1="0%" y1="0%" x2="0%" y2="100%">
      <stop offset="0%" style="stop-color:#FFFFFF;stop-opacity:1" />
      <stop offset="100%" style="stop-color:#E3F2FD;stop-opacity:0.95" />
    </linearGradient>
  </defs>

  <!-- Background with rounded corners -->
  <rect width="128" height="128" rx="24" fill="url(#bgGradient)"/>

  <!-- Stylized "C" letter -->
  <path d="M 80 35
           C 90 35, 95 40, 95 50
           L 85 50
           C 85 45, 82 42, 75 42
           L 60 42
           C 50 42, 45 47, 45 57
           L 45 71
           C 45 81, 50 86, 60 86
           L 75 86
           C 82 86, 85 83, 85 78
           L 95 78
           C 95 88, 90 93, 80 93
           L 58 93
           C 43 93, 35 85, 35 71
           L 35 57
           C 35 43, 43 35, 58 35
           Z"
        fill="url(#cGradient)"/>

  <!-- Small accent circle (representing search/features) -->
  <circle cx="88" cy="88" r="8" fill="#FFD54F" opacity="0.9"/>
  <circle cx="88" cy="88" r="5" fill="none" stroke="white" stroke-width="1.5"/>
</svg>
